<svg width="16" height="16" viewBox="0 0 16 16" fill="none" xmlns="http://www.w3.org/2000/svg">
<path fill-rule="evenodd" clip-rule="evenodd" d="M9.07772 4.32994L8.00009 3.5L6.92247 4.32994L5.56721 4.21436L5.10935 5.49516L3.90675 6.13063L4.21403 7.45565L3.5459 8.64042L4.52075 9.58896L4.59922 10.9469L5.93214 11.2178L6.7323 12.3177L8.00009 11.825L9.26789 12.3177L10.068 11.2178L11.401 10.9469L11.4794 9.58896L12.4543 8.64042L11.7862 7.45565L12.0934 6.13063L10.8908 5.49516L10.433 4.21436L9.07772 4.32994ZM6.85365 7.64645C6.65839 7.45118 6.3418 7.45118 6.14654 7.64645C5.95128 7.84171 5.95128 8.15829 6.14654 8.35355L7.14654 9.35355C7.3418 9.54882 7.65839 9.54882 7.85365 9.35355L9.85365 7.35355C10.0489 7.15829 10.0489 6.84171 9.85365 6.64645C9.65839 6.45118 9.3418 6.45118 9.14654 6.64645L7.50009 8.29289L6.85365 7.64645Z" fill="#0098FD"/>
</svg>
